<svg width="1027" height="958" viewBox="0 0 1027 958" fill="none" xmlns="http://www.w3.org/2000/svg">
<path fill-rule="evenodd" clip-rule="evenodd" d="M425.888 1.07989C308.051 10.6379 197.476 65.6289 120.509 152.95C58.4244 223.387 15.6004 319.463 3.50541 415.45C-0.655594 448.468 -1.19059 500.199 2.32141 529.95C12.1734 613.42 40.8764 689.195 88.5844 757.684C138.97 830.019 214.493 890.84 296.7 925.288C340.932 943.822 389.399 954.697 437.353 956.846C530.653 961.028 620.213 933.235 697.136 876.229C713.386 864.186 724.912 854.638 749.778 832.619C786.074 800.48 804.647 787.02 829.388 774.925C846.455 766.582 860.257 761.729 876.83 758.242C888.02 755.888 891.621 755.597 909.888 755.575C932.312 755.548 941.685 756.744 960.532 762.036C979.673 767.411 1002.83 777.153 1018.27 786.328C1022.61 788.904 1026.32 790.847 1026.53 790.645C1026.73 790.443 1021.83 785.333 1015.64 779.29C961.562 726.481 891.928 708.74 815.735 728.359C771.797 739.673 740.389 756.376 673.888 803.793C627.33 836.991 595.753 853.974 558.388 865.911C509.772 881.443 454.694 885.163 403.388 876.379C330.564 863.911 257.056 826.075 202.492 772.973C132.17 704.535 92.1324 622.726 80.3734 523.45C64.5834 390.142 126.673 244.125 235.033 159.738C324.891 89.7579 443.718 63.6469 549.888 90.5499C624.389 109.428 689.692 148.996 741.995 206.95C788.804 258.816 822.172 325.54 835.778 394.484C841.669 424.335 842.309 432.008 842.417 474.062L842.518 513.674L845.234 519.226C848.731 526.371 854.952 532.584 861.888 535.856C866.664 538.108 868.704 538.45 877.388 538.45C886.88 538.45 887.709 538.276 893.709 535.023C904.445 529.202 911.199 519.56 913.001 507.485C914.671 496.291 915.241 455.28 913.987 436.45C908.312 351.198 879.321 265.343 832.606 195.45C761.4 88.9139 651.024 20.9179 521.846 4.01089C491.924 0.0938909 452.781 -1.10111 425.888 1.07989ZM446.888 186.114C415.231 187.564 380.964 195.784 350.134 209.323C288.978 236.182 232.938 293.871 204.089 359.666C186.717 399.284 179.213 432.154 178.187 473.12C177.18 513.351 181.859 544.452 194.882 584.082C212.111 636.512 244.18 686.164 283.087 720.649C327.295 759.832 376.652 784.039 429.591 792.499C444.737 794.92 479.553 795.541 488.888 793.557C521.509 786.624 527.277 742.59 497.485 727.923C491.649 725.05 490.108 724.771 475.301 723.914C435.748 721.622 411.996 715.886 382.388 701.475C357.179 689.205 338.803 675.821 318.314 654.808C282.619 618.2 260.194 570.923 251.736 514.45C249.621 500.329 249.944 457.128 252.259 444.45C259.979 402.172 275.782 367.798 301.726 336.847C334.672 297.544 386.613 270.169 440.192 263.868C452.994 262.363 485.131 263.19 499.388 265.391C512.371 267.396 517.487 269.59 520.888 274.611L523.388 278.303L523.659 368.266C523.878 440.914 523.685 458.036 522.659 457.225C498.496 438.12 477.317 430.99 448.485 432.251C427.418 433.173 411.588 438.235 393.91 449.702C361.143 470.959 340.806 511.017 343.267 549.45C344.91 575.089 356.207 600.642 374.321 619.691C394.677 641.098 421.248 653.301 450.471 654.663C506.634 657.282 555.568 617.599 565.351 561.504C566.681 553.877 566.888 535.172 566.888 422.819C566.888 351.391 567.225 292.955 567.638 292.962C569.184 292.987 576.694 297.784 585.888 304.62C614.151 325.634 635.3 350.515 650.943 381.154C667.235 413.065 675.155 446.15 675.192 482.45C675.24 528.561 663.96 570.992 639.399 617.095C633.174 628.78 632.567 638.532 637.439 648.592C644.587 663.351 664.03 670.287 678.881 663.374C687.095 659.551 689.975 656.947 696.128 647.786C708.056 630.026 721.046 600.804 729.278 573.211C744.671 521.614 747.352 471.77 737.39 422.402C725.161 361.806 697.735 309.918 655.423 267.329C633.346 245.108 609.26 227.661 581.869 214.049C538.582 192.539 496.548 183.84 446.888 186.114Z" fill="url(#paint0_linear_5_6)"/>
<defs>
<linearGradient id="paint0_linear_5_6" x1="799" y1="831" x2="153" y2="393" gradientUnits="userSpaceOnUse">
<stop offset="0.254045" stop-color="#FD7685"/>
<stop offset="0.413462" stop-color="#D3B2FC"/>
<stop offset="1" stop-color="#6547FC"/>
</linearGradient>
</defs>
</svg>
